<svg width="88" height="20" viewBox="0 0 88 20" fill="none" xmlns="http://www.w3.org/2000/svg"><path d="M3.293 17.392h84.533L84.533 20H0l3.293-2.608z" fill="url(#paint0_linear)"/><path fill-rule="evenodd" clip-rule="evenodd" d="M3.186.54A4.867 4.867 0 015.475 0c1.688 0 3.098.668 3.95 2.245.432.782.655 1.734.655 2.842 0 2.217-.963 3.837-2.316 4.561-.684.355-1.438.526-2.29.526-1.688 0-3.083-.668-3.963-2.245C1.08 7.147.87 6.195.87 5.087c0-2.217.963-3.85 2.317-4.547zm4.257 2.017c-.516-.568-1.172-.852-1.968-.852-.795 0-1.451.284-1.982.852-.516.569-.781 1.407-.781 2.53 0 1.122.265 1.96.781 2.529.53.568 1.187.853 1.982.853.796 0 1.452-.285 1.968-.853.53-.568.795-1.407.795-2.53 0-1.122-.265-1.96-.795-2.529zm8.108 3.61h1.87c1.996 0 3.057-1.208 3.057-3.026 0-1.82-1.06-3.027-3.057-3.027h-3.684v9.946h1.814V6.167zm0-1.705h1.8c.852 0 1.285-.44 1.285-1.322 0-.88-.433-1.321-1.284-1.321h-1.8v2.643zM23.813.114v9.946h6.183V8.355h-4.369V5.968h3.392V4.263h-3.392V1.82h4.369V.114h-6.183zM39.36 6.679V.114h1.814v9.946h-1.912l-3.586-6.564v6.564H33.86V.114h1.912l3.587 6.565zm12.818-3.166l1.716-.436C53.41 1.117 51.87 0 49.64 0c-1.364 0-2.509.464-3.448 1.379-.939.914-1.408 2.192-1.408 3.817 0 1.626.47 2.903 1.408 3.818.94.914 2.084 1.378 3.448 1.378 2.23 0 3.771-1.117 4.255-3.077l-1.716-.435c-.455 1.176-1.291 1.77-2.539 1.77-.836 0-1.54-.29-2.098-.885-.543-.595-.821-1.451-.821-2.569 0-1.117.278-1.974.821-2.569.558-.595 1.262-.885 2.098-.885 1.248 0 2.084.595 2.539 1.77zm13.117-.509c0 1.35-.69 2.366-1.922 2.73l2.846 4.542h-2.127l-2.759-4.383h-.997v4.383h-1.908V.116h3.742c1.995 0 3.125 1.147 3.125 2.888zm9.229 7.272L77.972.116h-2.113l-2.304 7.519L71.252.116h-2.113l3.448 10.16h1.937zM86.95 1.843l-1.54.973c-.367-.711-.851-1.074-1.424-1.074-.572 0-.983.392-.983.929 0 .638.705 1.117 1.541 1.51 1.233.536 2.861 1.291 2.846 3.047 0 1.974-1.29 3.164-3.286 3.164-.895 0-1.673-.275-2.318-.812-.646-.552-1.057-1.234-1.218-2.032l1.54-.958c.397 1.378 1.072 2.06 2.04 2.06.895 0 1.335-.435 1.335-1.32 0-.595-.66-1.06-1.526-1.423-1.218-.508-2.802-1.277-2.773-3.15 0-.769.264-1.422.792-1.959C82.52.261 83.18 0 83.987 0c1.394 0 2.377.61 2.964 1.843zM62.184 4.151h-1.848V1.858h1.848c.807 0 1.203.377 1.203 1.147 0 .769-.396 1.146-1.203 1.146z" fill="#fff"/><defs><linearGradient id="paint0_linear" x1="27.263" y1="20.641" x2="27.355" y2="17.64" gradientUnits="userSpaceOnUse"><stop stop-color="#4C68C1"/><stop offset="1" stop-color="#7C93EC"/></linearGradient></defs></svg>